Coordinates
version=1
nRows=24
nColumns=24
inDegrees=yes

Units are S.I. units (second, meters, Newtons, ...)
Angles are in degrees.

endheader
time	pelvis_tilt	pelvis_list	pelvis_rotation	pelvis_tx	pelvis_ty	pelvis_tz	hip_flexion_r	hip_adduction_r	hip_rotation_r	knee_angle_r	ankle_angle_r	subtalar_angle_r	mtp_angle_r	hip_flexion_l	hip_adduction_l	hip_rotation_l	knee_angle_l	ankle_angle_l	subtalar_angle_l	mtp_angle_l	lumbar_extension	lumbar_bending	lumbar_rotation
      1.04966667	      7.14266804	     -5.91645513	     11.51279222	      0.54551146	      1.04436627	      0.27378886	      4.03654296	     12.51602723	     -6.05713326	    -17.07944361	      6.46401045	     -6.25262385	      4.85187043	     16.08235831	     -6.89964049	      4.94390009	    -56.75941996	      8.86327088	     -1.21271580	      0.41766271	     -7.19167073	      5.25664776	     -2.50515257
      1.05383333	      7.20141341	     -5.73892122	     11.29555630	      0.54977750	      1.04556863	      0.27421922	      3.41611827	     12.41011700	     -5.85454171	    -16.62259487	      6.49727898	     -6.02923419	      4.84199528	     16.23211571	     -6.62620468	      4.76687839	    -55.64722926	      8.79215745	     -2.10080010	      0.24519664	     -7.34837514	      5.06233832	     -2.29583979
      1.05800000	      7.25865615	     -5.56526430	     11.07865239	      0.55404844	      1.04674672	      0.27464073	      2.79733531	     12.30508774	     -5.64688940	    -16.15797015	      6.51781234	     -5.82147969	      4.83301381	     16.36770958	     -6.36320996	      4.58415319	    -54.49374799	      8.68377032	     -2.99586214	      0.06655963	     -7.49911392	      4.86712310	     -2.11084666
      1.06216667	      7.31195673	     -5.39799009	     10.85995128	      0.55830535	      1.04784334	      0.27503085	      2.19975954	     12.19264165	     -5.48444164	    -15.72008697	      6.52461745	     -5.54776593	      4.81400478	     16.49682612	     -6.10700197	      4.40397922	    -53.31477240	      8.57786356	     -3.88961701	     -0.36668234	     -7.64282828	      4.69247944	     -1.82721496
      1.06633333	      7.36068612	     -5.22680546	     10.64118234	      0.56257895	      1.04889957	      0.27543216	      1.59890776	     12.08113004	     -5.26866979	    -15.26575436	      6.53623479	     -5.36554926	      4.79928629	     16.61133029	     -5.85324868	      4.22124880	    -52.09062851	      8.40563740	     -4.76417816	     -0.76702801	     -7.78104911	      4.49937286	     -1.68031867
      1.07050000	      7.39210677	     -5.06253013	     10.42791580	      0.56685183	      1.04985885	      0.27582330	      1.01982750	     11.97447173	     -5.02445636	    -14.81519591	      6.58885643	     -5.22088335	      4.79371579	     16.73639020	     -5.60282576	      4.05780768	    -50.84137291	      8.18704705	     -5.57960631	     -0.99874732	     -7.90263572	      4.30235874	     -1.55560660
      1.07466667	      7.42516278	     -4.90581651	     10.19886768	      0.57112954	      1.05077269	      0.27621044	      0.45307850	     11.86474994	     -4.81238382	    -14.38774302	      6.62110690	     -5.02329500	      4.71989898	     16.84443917	     -5.37019415	      3.87315469	    -49.57198257	      8.06076931	     -6.32159410	     -4.30317171	     -8.00852430	      4.12370410	     -1.37662737
      1.07883333	      7.43822994	     -4.76190904	      9.95424799	      0.57540017	      1.05157344	      0.27661855	     -0.08303515	     11.76546848	     -4.55323860	    -13.97210833	      6.62366830	     -4.89430955	      4.71955909	     16.96467445	     -5.16010161	      3.67079882	    -48.27316889	      7.84277746	     -7.00887833	     -4.34179845	     -8.11243571	      3.95478197	     -1.27800496
      1.08300000	      7.49288221	     -4.62256887	      9.75491126	      0.57968346	      1.05237840	      0.27694883	     -0.67481271	     11.67541672	     -4.34700783	    -13.52067168	      6.64788385	     -4.76275570	      4.72043965	     17.03304332	     -4.94650657	      3.53521040	    -46.94497811	      7.55355079	     -7.71971766	     -4.40780371	     -8.22823036	      3.79650418	     -1.10301961
      1.08716667	      7.47527184	     -4.49657247	      9.50737881	      0.58396944	      1.05300737	      0.27733524	     -1.16233542	     11.58073679	     -4.09289687	    -13.12687972	      6.65668572	     -4.63401799	      4.72174570	     17.16607064	     -4.75151282	      3.35624625	    -45.60173036	      7.28541639	     -8.30729217	     -4.47911220	     -8.28600304	      3.64411390	     -0.97132768
      1.09133333	      7.49285833	     -4.38094629	      9.27470646	      0.58826298	      1.05362070	      0.27768703	     -1.69214730	     11.50025734	     -3.84688236	    -12.71511042	      6.66483097	     -4.51605844	      4.72380439	     17.25246527	     -4.57151776	      3.20455335	    -44.23877549	      7.00234432	     -8.83751119	     -4.56282297	     -8.36754263	      3.50735902	     -0.82387508
      1.09550000	      7.51259439	     -4.28838971	      9.06511071	      0.59255284	      1.05414628	      0.27799765	     -2.22375012	     11.44413202	     -3.61560063	    -12.28780662	      6.68551082	     -4.42317287	      4.72784325	     17.34177140	     -4.40941931	      3.09439409	    -42.87426780	      6.70164757	     -9.32898669	     -4.67897555	     -8.43224200	      3.40021631	     -0.64866258
      1.09966667	      7.50786839	     -4.20702827	      8.83050355	      0.59684583	      1.05457605	      0.27833554	     -2.71565530	     11.39138055	     -3.34923615	    -11.88763226	      6.68859631	     -4.34420814	      4.73339139	     17.44453016	     -4.26503657	      2.97019001	    -41.49372086	      6.41087163	     -9.71326220	     -4.81045290	     -8.48380315	      3.29777507	     -0.49663736
      1.10383333	      7.50194957	     -4.12665106	      8.58851835	      0.60114502	      1.05495031	      0.27868453	     -3.20339949	     11.33642279	     -3.07179544	    -11.49375170	      6.68511846	     -4.27325661	      4.74128472	     17.53545036	     -4.12609705	      2.85047077	    -40.09553759	      6.11312423	    -10.02432984	     -4.96035266	     -8.53653181	      3.19751030	     -0.34425722
      1.10800000	      7.46300409	     -4.07419799	      8.34451742	      0.60545655	      1.05518125	      0.27903069	     -3.64085133	     11.30284853	     -2.80018704	    -11.12196903	      6.70445982	     -4.23072287	      4.75111680	     17.66653911	     -4.01685836	      2.73629983	    -38.70739916	      5.82529934	    -10.25208982	     -5.10227647	     -8.52696614	      3.12532651	     -0.20649432
      1.11216667	      7.44518817	     -4.02363181	      8.09464389	      0.60975874	      1.05539090	      0.27937890	     -4.09966014	     11.27112446	     -2.51022570	    -10.75155994	      6.70907897	     -4.18778286	      4.76289460	     17.76167745	     -3.91385729	      2.63769254	    -37.30349670	      5.53668419	    -10.41637854	     -5.25225873	     -8.55751057	      3.05523403	     -0.06043422
      1.11633333	      7.37359585	     -3.99032630	      7.82008354	      0.61406834	      1.05545725	      0.27976895	     -4.47512158	     11.24277299	     -2.21870632	    -10.43314921	      6.71645350	     -4.12264237	      4.77284765	     17.91194622	     -3.83744249	      2.51181999	    -35.90425933	      5.27117814	    -10.44502244	     -5.35297789	     -8.53269041	      2.98600623	      0.03134696
      1.12050000	      7.35724245	     -3.96034452	      7.58102511	      0.61839078	      1.05555916	      0.28009181	     -4.93953477	     11.23024793	     -1.91180779	    -10.04656767	      6.71882248	     -4.13831517	      4.79061933	     17.98977865	     -3.75041570	      2.47758355	    -34.48360096	      4.96518560	    -10.56699023	     -5.52042335	     -8.54741170	      2.94834972	      0.23406408
      1.12466667	      7.30563137	     -3.94516726	      7.31541704	      0.62270831	      1.05554056	      0.28046093	     -5.33930284	     11.22134172	     -1.59830102	     -9.71594177	      6.72466554	     -4.13909186	      4.81317818	     18.10206586	     -3.69166378	      2.41380184	    -33.06994831	      4.69350217	    -10.55990868	     -5.69130913	     -8.52685108	      2.91051522	      0.38794107
      1.12883333	      7.19505640	     -3.95192087	      7.03629479	      0.62703514	      1.05535549	      0.28085628	     -5.65099155	     11.22074495	     -1.30873783	     -9.43282462	      6.75520153	     -4.07776282	      4.82817452	     18.28672939	     -3.66373101	      2.32365519	    -31.68229532	      4.45317602	    -10.42725834	     -5.78086215	     -8.44823724	      2.88033358	      0.45719593
      1.13300000	      7.12804612	     -3.94933502	      6.75905229	      0.63136891	      1.05522475	      0.28124587	     -6.02253310	     11.21473173	     -0.99637720	     -9.12693877	      6.78631999	     -4.04910633	      4.84417420	     18.40175730	     -3.62815844	      2.26690193	    -30.26874598	      4.18773229	    -10.32750096	     -5.87092155	     -8.41895196	      2.85325828	      0.57978528
      1.13716667	      7.06384186	     -3.97347164	      6.49735407	      0.63569199	      1.05501689	      0.28161529	     -6.40185674	     11.24182467	     -0.64136810	     -8.79848601	      6.77392081	     -4.14660964	      4.87936077	     18.51202175	     -3.60920660	      2.29420851	    -28.85544172	      3.91837950	    -10.30772173	     -6.05841378	     -8.37698086	      2.86087854	      0.83721845
      1.14133333	      6.98596662	     -4.00044571	      6.21259682	      0.64002096	      1.05476156	      0.28203192	     -6.74415343	     11.26104193	     -0.31121059	     -8.52358241	      6.80317121	     -4.15543521	      4.91941112	     18.63093470	     -3.61343377	      2.27014588	    -27.45207333	      3.68144375	    -10.16851160	     -6.23680770	     -8.32307718	      2.85713927	      0.98514258
      1.14550000	      6.88868467	     -4.03230747	      5.92642186	      0.64436576	      1.05442687	      0.28245022	     -7.06006103	     11.27969377	      0.00943474	     -8.26133217	      6.85836894	     -4.16263685	      4.95809579	     18.76720290	     -3.62591012	      2.24858790	    -26.05778998	      3.45207091	    -10.02591461	     -6.39305009	     -8.24401739	      2.87363088	      1.12620294
